<svg width="75" height="75" viewBox="0 0 75 75" fill="none" xmlns="http://www.w3.org/2000/svg">
<path d="M61.3327 47.9851H45.3104C45.3161 48.0204 45.3199 48.0564 45.3199 48.0933C45.3199 48.7362 44.7987 49.2574 44.1558 49.2574H30.8194C30.1765 49.2574 29.6553 48.7362 29.6553 48.0933C29.6553 48.0564 29.6591 48.0204 29.6648 47.9851H13.6675C12.4249 47.9851 11.4175 48.9924 11.4175 50.2351C11.4175 52.376 13.1531 54.1116 15.2939 54.1116H59.7063C61.8472 54.1116 63.5828 52.376 63.5828 50.2351C63.5827 48.9924 62.5754 47.9851 61.3327 47.9851ZM19.0769 51.9858H16.7454C16.2276 51.9858 15.8079 51.5661 15.8079 51.0483C15.8079 50.5305 16.2276 50.1108 16.7454 50.1108H19.0769C19.5946 50.1108 20.0144 50.5305 20.0144 51.0483C20.0144 51.5661 19.5946 51.9858 19.0769 51.9858ZM58.0319 51.9858H55.7005C55.1827 51.9858 54.763 51.5661 54.763 51.0483C54.763 50.5305 55.1827 50.1108 55.7005 50.1108H58.0319C58.5497 50.1108 58.9694 50.5305 58.9694 51.0483C58.9694 51.5661 58.5497 51.9858 58.0319 51.9858Z" fill="#231F20"/>
<path d="M50.4362 28.0329C51.0679 28.0329 51.58 27.5208 51.58 26.8891C51.58 26.2574 51.0679 25.7454 50.4362 25.7454C49.8046 25.7454 49.2925 26.2574 49.2925 26.8891C49.2925 27.5208 49.8046 28.0329 50.4362 28.0329Z" fill="#231F20"/>
<path d="M45.4009 39.077C44.7945 38.9035 44.1601 39.2557 43.9866 39.8621C43.8131 40.4684 44.1654 41.1028 44.7717 41.2763C45.3781 41.4497 46.0125 41.0975 46.1859 40.4912C46.3593 39.8849 46.0071 39.2504 45.4009 39.077Z" fill="#231F20"/>
<path d="M29.907 33.1173C30.5698 33.1173 31.107 32.58 31.107 31.9173C31.107 31.2545 30.5698 30.7173 29.907 30.7173C29.2443 30.7173 28.707 31.2545 28.707 31.9173C28.707 32.58 29.2443 33.1173 29.907 33.1173Z" fill="#231F20"/>
<path d="M56.7195 20.8884H18.2593C17.0167 20.8884 16.0093 21.8958 16.0093 23.1384V46.11H58.9696V23.1384C58.9695 21.8958 57.9622 20.8884 56.7195 20.8884ZM25.2947 35.0487H24.5822C22.9045 35.0487 21.5447 33.6882 21.5447 32.0112V31.8237C21.5447 30.1459 22.9045 28.7862 24.5822 28.7862H25.2947V35.0487ZM30.2589 42.4864H28.4589C28.0449 42.4864 27.6699 42.3184 27.3984 42.0469C27.1269 41.7754 26.9589 41.4004 26.9589 40.9864C26.9589 40.4352 27.2574 39.9544 27.7007 39.6934L27.382 36.9237H30.1285C30.1285 36.9237 30.148 36.9237 30.1547 36.9237C30.1727 36.9237 30.19 36.9244 30.208 36.9259C30.211 36.9267 30.2147 36.9267 30.2185 36.9267C30.2395 36.9282 30.2605 36.9297 30.2816 36.9327C30.3228 36.9372 30.3641 36.9432 30.4052 36.9514L30.7045 39.5532C31.0097 39.6476 31.273 39.8382 31.4605 40.0887C31.648 40.3392 31.759 40.6497 31.759 40.9864C31.7589 41.8144 31.0877 42.4864 30.2589 42.4864ZM40.276 26.1904V29.0397V34.7944V37.6444V38.8924C40.276 39.4099 39.8559 39.8299 39.3385 39.8299C38.8652 39.8299 38.4753 39.4789 38.4115 39.0236H37.786C37.1005 39.0236 36.433 38.8092 35.8757 38.4102L32.0387 35.6622C31.6817 35.4064 31.2797 35.2264 30.8567 35.1312C30.8357 35.1259 30.8147 35.1214 30.7937 35.1169C30.7855 35.1147 30.7765 35.1132 30.7674 35.1117C30.7592 35.1094 30.7509 35.1079 30.7419 35.1072C30.7119 35.1004 30.6811 35.0952 30.6512 35.0907C30.6384 35.0884 30.6264 35.0869 30.6137 35.0854C30.5852 35.0809 30.5567 35.0772 30.5282 35.0734C30.5132 35.0712 30.4982 35.0697 30.4824 35.0682C30.4479 35.0644 30.4127 35.0614 30.3774 35.0584C30.3692 35.0577 30.3609 35.0569 30.3535 35.0569C30.3242 35.0547 30.2942 35.0532 30.2649 35.0524C30.241 35.0509 30.2162 35.0502 30.1922 35.0494C30.1719 35.0487 30.1502 35.0487 30.1284 35.0487H27.3819C27.3107 35.0487 27.2394 35.0524 27.1697 35.0614V34.9932V28.7862H30.1284C30.8139 28.7862 31.4814 28.5717 32.0387 28.1727L35.8757 25.4247C36.4329 25.0257 37.1004 24.8112 37.7859 24.8112H38.4114C38.4753 24.3559 38.8652 24.0049 39.3384 24.0049C39.8559 24.0049 40.2759 24.4249 40.2759 24.9424V26.1904H40.276ZM42.151 34.6797C43.2453 34.2394 44.0193 33.1669 44.0193 31.9174C44.0193 30.6679 43.2453 29.5954 42.151 29.1544V27.4459C42.649 27.5697 43.1148 27.7744 43.5339 28.0452L44.2975 27.4429C44.5368 27.2539 44.8788 27.2742 45.094 27.4894L45.4698 27.8652C45.685 28.0804 45.7053 28.4232 45.517 28.6617L44.914 29.4252C45.2095 29.8819 45.4255 30.3934 45.544 30.9417L46.5078 31.0549C46.81 31.0909 47.038 31.3467 47.038 31.6512V32.1829C47.038 32.4874 46.81 32.7439 46.5078 32.7792L45.544 32.8932C45.4255 33.4407 45.2095 33.9529 44.914 34.4089L45.517 35.1724C45.7053 35.4117 45.685 35.7537 45.4698 35.9689L45.094 36.3447C44.8788 36.5599 44.5367 36.5802 44.2975 36.3919L43.5339 35.7897C43.1147 36.0604 42.6489 36.2644 42.151 36.3882V34.6797ZM48.0051 40.8734L47.9319 41.1291C47.8901 41.2754 47.7454 41.3672 47.5952 41.3428L47.1161 41.2649C46.9837 41.5119 46.8094 41.7282 46.605 41.9072L46.7895 42.357C46.8473 42.4978 46.7906 42.6596 46.6575 42.7335L46.425 42.8625C46.292 42.9363 46.1247 42.8989 46.0358 42.7755L45.7517 42.381C45.4916 42.4599 45.2158 42.4935 44.9361 42.4752L44.7489 42.923C44.6903 43.0634 44.5357 43.1376 44.3895 43.0958L44.1339 43.0226C43.9875 42.9808 43.8957 42.8361 43.9201 42.6858L43.998 42.2068C43.751 42.0744 43.5346 41.9001 43.3557 41.6956L42.9059 41.8802C42.7651 41.938 42.6034 41.8812 42.5295 41.7482L42.4005 41.5158C42.3267 41.3827 42.364 41.2154 42.4875 41.1264L42.882 40.8423C42.8031 40.5822 42.7695 40.3064 42.7878 40.0268L42.34 39.8396C42.1996 39.7809 42.1254 39.6264 42.1672 39.48L42.2403 39.2244C42.2822 39.0781 42.4269 38.9862 42.5771 39.0107L43.0562 39.0886C43.1886 38.8416 43.3629 38.6253 43.5675 38.4462L43.3828 37.9965C43.3251 37.8557 43.3818 37.6939 43.5149 37.62L43.7473 37.491C43.8804 37.4172 44.0477 37.4546 44.1366 37.578L44.4207 37.9726C44.6808 37.8936 44.9565 37.8601 45.2362 37.8784L45.4234 37.4307C45.4821 37.2903 45.6366 37.2159 45.783 37.2578L46.0385 37.3309C46.1848 37.3728 46.2767 37.5175 46.2523 37.6677L46.1744 38.1468C46.4214 38.2791 46.6377 38.4534 46.8168 38.658L47.2665 38.4734C47.4073 38.4156 47.5691 38.4723 47.6429 38.6054L47.772 38.8378C47.8458 38.9709 47.8084 39.1381 47.685 39.2271L47.2904 39.5112C47.3694 39.7712 47.4029 40.047 47.3846 40.3267L47.8324 40.5139C47.9727 40.5726 48.0469 40.7271 48.0051 40.8734ZM53.4341 27.0221C53.4341 27.1743 53.3202 27.3024 53.1691 27.3202L52.6871 27.3771C52.6278 27.651 52.5197 27.9069 52.3722 28.1352L52.6734 28.5169C52.7677 28.6364 52.7577 28.8075 52.65 28.9152L52.462 29.1031C52.3544 29.2107 52.1833 29.2208 52.0638 29.1265L51.6821 28.8253C51.4538 28.9728 51.1978 29.0808 50.924 29.1402L50.8671 29.6222C50.8493 29.7733 50.7212 29.8872 50.5689 29.8872H50.3031C50.151 29.8872 50.0229 29.7733 50.0049 29.6222L49.9481 29.1402C49.6743 29.0808 49.4183 28.9728 49.19 28.8253L48.8083 29.1265C48.6888 29.2208 48.5177 29.2107 48.4101 29.1031L48.222 28.9152C48.1144 28.8075 48.1044 28.6365 48.1986 28.5169L48.4998 28.1352C48.3524 27.9069 48.2443 27.651 48.185 27.3771L47.703 27.3202C47.5518 27.3024 47.438 27.1743 47.438 27.0221V26.7563C47.438 26.6041 47.5519 26.476 47.703 26.4582L48.185 26.4013C48.2443 26.1274 48.3524 25.8714 48.4998 25.6431L48.1986 25.2615C48.1044 25.142 48.1144 24.9709 48.222 24.8632L48.4101 24.6753C48.5177 24.5676 48.6888 24.5576 48.8083 24.6519L49.19 24.9531C49.4183 24.8056 49.6743 24.6975 49.9481 24.6382L50.0049 24.1562C50.0228 24.0051 50.1509 23.8911 50.3031 23.8911H50.5689C50.7211 23.8911 50.8492 24.0051 50.8671 24.1562L50.924 24.6382C51.1978 24.6975 51.4538 24.8056 51.6821 24.9531L52.0638 24.6519C52.1833 24.5576 52.3544 24.5676 52.462 24.6753L52.65 24.8632C52.7577 24.9708 52.7676 25.142 52.6734 25.2615L52.3722 25.6431C52.5197 25.8714 52.6278 26.1274 52.6871 26.4013L53.1691 26.4582C53.3202 26.476 53.4341 26.6041 53.4341 26.7563V27.0221Z" fill="#231F20"/>
</svg>
