<svg width="75" height="75" viewBox="0 0 75 75" fill="none" xmlns="http://www.w3.org/2000/svg">
<path d="M69.0751 34.5773L40.4228 5.925C40.0308 5.5317 39.5651 5.21964 39.0523 5.00671C38.5395 4.79378 37.9897 4.68417 37.4345 4.68417C36.8792 4.68417 36.3295 4.79378 35.8167 5.00671C35.3039 5.21964 34.8381 5.5317 34.4462 5.925L28.4954 11.8758L36.0423 19.4227C36.9322 19.1198 37.8894 19.073 38.8046 19.2876C39.7198 19.5023 40.5564 19.9697 41.2189 20.6366C41.8814 21.3035 42.3433 22.1431 42.5518 23.0598C42.7604 23.9764 42.7073 24.9332 42.3985 25.8211L49.6642 33.0867C50.7502 32.7136 51.9313 32.7239 53.0107 33.116C54.09 33.508 55.0024 34.258 55.5959 35.2411C56.1894 36.2242 56.4281 37.381 56.2722 38.5187C56.1163 39.6564 55.5753 40.7063 54.7393 41.4935C53.9032 42.2808 52.8227 42.7578 51.6777 42.845C50.5327 42.9323 49.3923 42.6245 48.4467 41.9731C47.501 41.3216 46.8071 40.3658 46.4806 39.2649C46.1542 38.1639 46.2148 36.9843 46.6525 35.9227L39.8673 29.1375V46.9898C40.8951 47.4991 41.7175 48.3451 42.1973 49.387C42.6772 50.4289 42.7856 51.6037 42.5045 52.7158C42.2234 53.8279 41.5698 54.8102 40.6525 55.4989C39.7352 56.1877 38.6096 56.5413 37.4633 56.501C36.3169 56.4608 35.2189 56.0289 34.3523 55.2775C33.4856 54.526 32.9025 53.5003 32.7002 52.3712C32.4979 51.2422 32.6885 50.0778 33.2403 49.0722C33.7922 48.0666 34.6719 47.2804 35.7329 46.8445V28.8281C35.1191 28.5763 34.5611 28.2055 34.0912 27.737C33.6213 27.2686 33.2487 26.7118 32.9949 26.0988C32.7411 25.4858 32.6111 24.8286 32.6124 24.1651C32.6137 23.5016 32.7463 22.8449 33.0025 22.2328L25.5728 14.7984L5.92511 34.4531C5.53146 34.8451 5.2191 35.311 5.00596 35.824C4.79282 36.337 4.68311 36.8871 4.68311 37.4426C4.68311 37.9981 4.79282 38.5482 5.00596 39.0612C5.2191 39.5742 5.53146 40.0401 5.92511 40.432L34.5775 69.075C34.9694 69.4683 35.4351 69.7804 35.9479 69.9933C36.4607 70.2062 37.0105 70.3158 37.5657 70.3158C38.121 70.3158 38.6708 70.2062 39.1836 69.9933C39.6964 69.7804 40.1621 69.4683 40.554 69.075L69.0751 40.5469C69.4688 40.1549 69.7811 39.689 69.9943 39.176C70.2074 38.663 70.3171 38.1129 70.3171 37.5574C70.3171 37.0019 70.2074 36.4518 69.9943 35.9388C69.7811 35.4258 69.4688 34.9599 69.0751 34.568" fill="#DD4C35"/>
<path d="M28.4954 11.8758L36.0423 19.4227C36.9322 19.1198 37.8893 19.073 38.8046 19.2877C39.7198 19.5023 40.5563 19.9697 41.2189 20.6366C41.8814 21.3035 42.3432 22.1431 42.5518 23.0598C42.7604 23.9764 42.7073 24.9332 42.3985 25.8211L49.6642 33.0867C50.7502 32.7136 51.9313 32.724 53.0106 33.116C54.09 33.508 55.0024 34.258 55.5959 35.2411C56.1894 36.2242 56.4281 37.381 56.2722 38.5187C56.1163 39.6564 55.5753 40.7063 54.7393 41.4936C53.9032 42.2808 52.8227 42.7578 51.6777 42.845C50.5327 42.9323 49.3923 42.6246 48.4466 41.9731C47.501 41.3216 46.8071 40.3658 46.4806 39.2649C46.1541 38.1639 46.2148 36.9843 46.6524 35.9227L39.8673 29.1375V46.9899C40.8951 47.4991 41.7175 48.3451 42.1973 49.387C42.6772 50.4289 42.7856 51.6037 42.5045 52.7159C42.2234 53.828 41.5698 54.8102 40.6525 55.4989C39.7352 56.1877 38.6096 56.5414 37.4633 56.5011C36.3169 56.4608 35.2189 56.0289 34.3523 55.2775C33.4856 54.526 32.9025 53.5003 32.7002 52.3713C32.4979 51.2422 32.6885 50.0778 33.2403 49.0722C33.7922 48.0666 34.6719 47.2804 35.7329 46.8445V28.8281C35.1191 28.5763 34.5611 28.2055 34.0912 27.737C33.6213 27.2686 33.2487 26.7119 32.9949 26.0988C32.7411 25.4858 32.6111 24.8286 32.6124 24.1651C32.6137 23.5016 32.7463 22.8449 33.0024 22.2328L25.5728 14.7984" fill="white"/>
</svg>
