<svg width="50" height="75" viewBox="0 0 50 75" fill="none" xmlns="http://www.w3.org/2000/svg">
<path d="M40.9766 57.29L38.2227 60.8936L37.3242 72.6416C37.3242 73.9453 31.7969 75 25 75C18.2031 75 12.6758 73.9453 12.6758 72.6416L11.543 61.0107L8.63281 57.29C16.6797 59.8242 33.2422 59.7363 40.9766 57.29ZM2.69531 20.1856L5.35156 38.5693C6.50391 35.6397 9.41406 31.6846 13.1641 30.4834C14.3945 30.0879 15.6445 30.0879 16.8164 30.6152C17.832 31.0547 18.6914 31.9775 18.7891 32.3438C19.0234 33.2959 18.3984 33.6768 17.9102 33.6768C17.3242 33.6768 16.875 33.0029 16.582 32.6074C15.7812 31.5381 14.5703 31.4941 13.2812 32.1973C11.9336 32.9297 10.7617 34.1602 9.94141 35.2295C8.94531 36.5186 8.10547 37.9395 7.59766 39.3604C7.30469 40.1807 7.03125 41.499 7.48047 42.2754C7.67578 42.5977 7.96875 42.8027 8.4375 42.8027C9.41406 42.8027 10.8398 41.8359 11.5234 41.3232C12.4023 40.6641 13.5352 39.6387 13.9648 38.9795L14.9805 36.709C15.4883 35.7129 16.9141 35.8887 16.9141 36.709C16.9141 38.2031 16.1914 38.7012 14.9609 41.792C13.8281 44.6484 13.4766 45.5713 13.4766 45.5713C13.3398 45.9814 12.8125 46.6699 12.2461 46.6699C12.0117 46.6699 11.8359 46.6113 11.7383 46.4941C11.543 46.2891 11.5625 45.7178 11.582 45.5713C11.6211 45.1025 12.8125 42.3193 13.0078 41.8799C12.6172 42.2022 12.207 42.5244 11.7578 42.8467C10.7031 43.5938 9.00391 44.5752 7.55859 44.5752C6.89453 44.5752 6.46484 44.4434 6.05469 44.2236L7.53906 55.8838C7.92969 56.6162 15.1953 58.3887 24.7656 58.3887C34.3555 58.3887 41.6211 56.6016 41.9922 55.8838L44.1211 42.0264C43.0078 42.7881 41.7188 43.7256 40.293 44.1943C39.2383 44.5313 36.8945 44.751 36.8945 43.3594C36.8945 42.5977 38.6719 41.1914 39.707 40.21C39.9805 39.9609 40.625 39.3457 40.625 39.0234C40.625 38.5986 39.4531 38.7012 38.3398 39.3897C37.7148 39.7852 37.1289 40.3125 36.6406 40.8106C35.8008 41.6895 35.3516 42.4512 34.9805 43.0811C33.7695 45.1611 34.1797 44.3408 33.2031 46.3037C32.2266 48.252 32.3828 48.0322 32.1875 48.3545C32.0117 48.6328 31.7578 48.8672 31.4062 49.0137C31.0352 49.1602 30.5273 49.1455 30.2148 48.9697C30.0391 48.8818 29.9609 48.6914 29.9609 48.4277C29.9609 48.2959 29.9805 48.1641 30.0195 48.0322C30.3125 47.1387 31.543 45.3809 32.9492 43.0078C33.2617 42.4658 33.1445 42.627 33.1055 42.6709C31.8945 43.5498 30.9766 43.9746 30.293 44.209C29.1602 44.5898 27.7539 44.5898 27.4609 43.6084C27.4414 43.5498 27.4414 43.4912 27.4219 43.4326C25.1172 44.7803 22.6758 45.1465 23.5156 42.2461C22.6172 43.4473 21.0547 44.4287 19.1406 44.4287C18.3398 44.4287 17.7539 44.2236 17.4609 43.6816C17.0117 42.876 17.7148 41.499 18.3594 40.1953C18.6914 39.5361 19.1406 38.7451 19.7461 37.8223C20.0586 37.3242 20.5664 37.0313 21.2305 37.1631C21.3477 37.1924 21.4453 37.2217 21.543 37.2656C22.0508 37.5293 21.8555 37.9248 21.6016 38.3203C20.8594 39.4189 20.2148 40.2246 19.7852 41.3672C19.6094 41.8506 19.3945 42.6856 20.0781 42.6856C20.5469 42.6856 20.9961 42.5684 21.4258 42.334C22.3242 41.8359 23.0469 41.0889 23.5938 40.3564C23.9844 39.8291 24.4531 39.1406 24.6875 38.5547C24.7852 38.3057 24.9023 38.0713 25.0391 37.8516C25.2539 37.4854 25.5469 37.1045 26.0547 37.1045C26.3086 37.1045 26.5234 37.1777 26.6797 37.3242C27.0117 37.6465 26.9336 37.9834 26.7578 38.335C26.3672 39.1553 25.8398 39.8877 25.4102 40.7813C25.1562 41.2939 24.8828 41.9531 24.8828 42.4951C24.8828 42.9932 25.6055 42.876 26.2109 42.6709C26.6797 42.5098 27.1484 42.2607 27.5391 42.0117C27.7734 41.2939 27.7148 41.4551 32.6953 32.0215C32.9492 31.5381 33.418 31.333 33.8867 31.333C34.1211 31.333 34.3164 31.3916 34.5117 31.4941C34.8438 31.6846 34.8438 32.0947 34.707 32.4023C34.5703 32.6807 34.5898 32.5928 33.8281 33.9404C32.8125 35.7129 32.1484 36.9873 31.25 38.6133C30.8789 39.2871 29.7461 41.3818 29.5508 41.8799C29.4336 42.2022 29.2969 42.7295 29.7461 42.7295C30.8008 42.7295 33.5156 40.8106 34.2578 40.2393C34.2969 40.1953 34.3555 40.1807 34.4336 40.1514C34.5508 39.8731 34.668 39.6094 34.7656 39.3457C35.0391 38.7891 35.293 38.1445 35.8008 37.6904C35.957 37.5439 36.1328 37.4561 36.3281 37.4561C36.875 37.4561 37.1484 37.6318 37.1484 38.042C37.1484 38.2031 37.0117 38.7891 36.9336 38.9502C37.207 38.7305 37.5 38.5107 37.8125 38.291C40.7422 36.2549 42.832 37.2949 42.832 38.3203C42.832 39.4043 41.0938 40.9131 40.1367 41.7481C39.8242 42.0264 39.1797 42.5391 39.1602 42.6856C39.1602 42.876 39.3359 42.9492 39.5898 42.9492C39.9805 42.9492 40.8398 42.4365 41.1523 42.2607C42.1289 41.6895 43.457 40.8106 44.3945 40.1953L47.2852 20.1563C41.3281 22.6611 8.69141 22.6758 2.69531 20.1856ZM47.5586 18.9404C47.5586 22.0166 2.40234 22.0166 2.40234 18.9404C2.40234 17.6514 12.5195 16.6113 24.9805 16.6113C26.7383 16.6113 28.457 16.626 30.1172 16.6699L32.5781 9.53614L44.5508 0.0878994C44.8242 -0.117179 45.6836 0.0586025 46.4844 0.600595C47.2852 1.14259 47.7734 1.75782 47.5195 1.9629L47.5 1.97755L36.3086 10.8399L34.3555 16.8018C42.1484 17.1826 47.5586 17.9883 47.5586 18.9404ZM34.0039 19.6143C34.0039 19.4971 33.8281 19.3945 33.5156 19.3066L33.4766 19.4238C33.4766 19.6143 32.5 19.7754 31.3086 19.7754C30.1172 19.7754 29.1406 19.6143 29.1406 19.4238C29.1406 19.4092 29.1406 19.3945 29.1602 19.3799L29.1992 19.2774C28.8477 19.3652 28.6133 19.4824 28.6133 19.6143C28.6133 19.9219 29.8242 20.1563 31.2891 20.1563C32.793 20.1709 34.0039 19.9219 34.0039 19.6143Z" fill="#FF0000"/>
</svg>
