<svg width="75" height="75" viewBox="0 0 75 75" fill="none" xmlns="http://www.w3.org/2000/svg">
<path d="M37.5 75C58.2107 75 75 58.2107 75 37.5C75 16.7893 58.2107 0 37.5 0C16.7893 0 0 16.7893 0 37.5C0 58.2107 16.7893 75 37.5 75Z" fill="#0769AD"/>
<path d="M17.036 25.5322C12.8905 31.4941 13.4032 39.2578 16.5673 45.6006C16.6405 45.7471 16.7284 45.8936 16.8017 46.0547C16.8456 46.1572 16.9042 46.2451 16.9481 46.3477C16.9774 46.4062 17.0067 46.4502 17.036 46.5088C17.0946 46.6113 17.1386 46.6992 17.1972 46.8018C17.2997 46.9775 17.4022 47.1533 17.5048 47.3145C17.5634 47.417 17.622 47.5049 17.6806 47.5928C17.7978 47.7686 17.9149 47.959 18.0321 48.1494C18.0761 48.2227 18.1347 48.3105 18.1786 48.3838C18.3397 48.6328 18.5155 48.8672 18.6913 49.1162L18.706 49.1309C18.7353 49.1748 18.7646 49.2041 18.7938 49.248C18.9403 49.4531 19.1015 49.6582 19.2626 49.8633C19.3212 49.9365 19.3798 50.0098 19.4384 50.083C19.5849 50.2588 19.7167 50.4346 19.8632 50.6103C19.9218 50.6689 19.9657 50.7422 20.0243 50.8008C20.2147 51.0352 20.4198 51.2549 20.6249 51.4893L20.6395 51.5039C20.6542 51.5186 20.6542 51.5186 20.6688 51.5332C20.8593 51.7529 21.0644 51.958 21.2694 52.1777C21.328 52.251 21.4013 52.3096 21.4599 52.3682C21.621 52.5293 21.7821 52.6904 21.9433 52.8516C22.0165 52.9102 22.0751 52.9834 22.1483 53.042C22.3681 53.2471 22.5878 53.4521 22.8075 53.6426C22.8075 53.6426 22.8075 53.6426 22.8222 53.6426C22.8661 53.6719 22.8954 53.7158 22.9394 53.7451C23.1444 53.9209 23.3349 54.082 23.5399 54.2578C23.6278 54.3311 23.7011 54.3896 23.789 54.4629C23.9501 54.5947 24.1259 54.7266 24.287 54.8584C24.3749 54.9316 24.4628 54.9902 24.5507 55.0635C24.7411 55.1953 24.9169 55.3418 25.1073 55.4736C25.1806 55.5322 25.2392 55.5762 25.3124 55.6201C25.3271 55.6348 25.3563 55.6494 25.371 55.6641C25.5468 55.7959 25.7372 55.9131 25.9276 56.0303C26.0009 56.0889 26.0888 56.1328 26.162 56.1914C26.4403 56.3672 26.7333 56.543 27.0263 56.7188C27.0995 56.7627 27.1874 56.8066 27.2606 56.8506C27.4804 56.9678 27.6854 57.085 27.9052 57.2168C28.0224 57.2754 28.1395 57.334 28.2567 57.3926C28.4179 57.4658 28.5644 57.5537 28.7108 57.6269C28.7401 57.6416 28.7841 57.6562 28.8134 57.6855C28.872 57.7148 28.9452 57.7441 29.0038 57.7734C29.2382 57.8906 29.4872 58.0078 29.7362 58.1104C29.7948 58.1396 29.8388 58.1543 29.8974 58.1836C30.1757 58.3154 30.4686 58.4326 30.747 58.5352C30.8202 58.5644 30.8788 58.5938 30.952 58.623C31.2157 58.7256 31.4794 58.8281 31.7577 58.916C31.787 58.9307 31.831 58.9307 31.8603 58.9453C32.1532 59.0478 32.4608 59.1504 32.7538 59.2383C32.827 59.2529 32.9003 59.2822 32.9735 59.2969C33.2812 59.3994 33.5741 59.5019 33.8964 59.5605C53.9647 63.2227 59.7948 47.5049 59.7948 47.5049C54.9022 53.8769 46.2157 55.5615 37.9687 53.6865C37.661 53.6133 37.3534 53.5254 37.0458 53.4229C36.9726 53.4082 36.8993 53.3789 36.8114 53.3496C36.5185 53.2617 36.2255 53.1592 35.9325 53.0566C35.8886 53.042 35.8446 53.0273 35.8153 53.0127C35.5517 52.9102 35.288 52.8223 35.039 52.7197C34.9657 52.6904 34.8925 52.6611 34.8192 52.6318C34.5409 52.5146 34.2479 52.3975 33.9696 52.2803C33.911 52.251 33.8524 52.2363 33.8085 52.207C33.5741 52.1045 33.3397 51.9873 33.0907 51.8701C33.0175 51.8408 32.9589 51.8115 32.8856 51.7676C32.7099 51.6797 32.5194 51.5771 32.329 51.4893C32.2118 51.4307 32.08 51.3574 31.9628 51.2988C31.7431 51.1816 31.5233 51.0645 31.3036 50.9326C31.2304 50.8887 31.1571 50.8594 31.0839 50.8154C30.7909 50.6396 30.5126 50.4639 30.2196 50.2881C30.1464 50.2441 30.0585 50.1855 29.9853 50.1416C29.7802 50.0098 29.5751 49.8779 29.37 49.7314C29.2968 49.6875 29.2382 49.6289 29.1796 49.5996C28.9892 49.4678 28.7987 49.3213 28.6083 49.1748C28.5204 49.1162 28.4325 49.043 28.3593 48.9844C28.1835 48.8525 28.0077 48.7207 27.8319 48.5742C27.7587 48.5156 27.6708 48.4424 27.5976 48.3838C27.3778 48.208 27.1581 48.0176 26.953 47.8418C26.9237 47.8271 26.9091 47.7979 26.8798 47.7832C26.6454 47.5781 26.4257 47.373 26.1913 47.168C26.1181 47.1094 26.0595 47.0508 26.0009 46.9922C25.8397 46.8311 25.664 46.6699 25.5175 46.5088C25.4589 46.4502 25.3856 46.377 25.327 46.3184C25.122 46.1133 24.9169 45.8936 24.7265 45.6738C24.7118 45.6592 24.7118 45.6592 24.6972 45.6445C24.4921 45.4102 24.287 45.1904 24.0819 44.9561C24.0233 44.8975 23.9794 44.8242 23.9208 44.7656C23.7743 44.5898 23.6278 44.3994 23.4813 44.2236C23.4228 44.165 23.3788 44.0918 23.3202 44.0186C23.1444 43.7988 22.9833 43.5645 22.8075 43.3447C18.2372 37.1045 16.5966 28.5059 20.244 21.4453" fill="white"/>
<path d="M29.9264 20.4932C26.9235 24.8145 27.0846 30.6006 29.4284 35.1563C29.8239 35.918 30.2633 36.665 30.7614 37.3682C31.2155 38.0127 31.7135 38.7744 32.2995 39.3018C32.5192 39.5361 32.7389 39.7705 32.9733 40.0049C33.0319 40.0635 33.0905 40.1221 33.1491 40.1807C33.3688 40.4004 33.6032 40.6055 33.8376 40.8252C33.8522 40.8398 33.8522 40.8398 33.8669 40.8545C34.1305 41.0889 34.3942 41.3086 34.6725 41.5137C34.7311 41.5576 34.7897 41.6162 34.8483 41.6602C35.1266 41.8652 35.4049 42.0703 35.6833 42.2754C35.6979 42.2754 35.6979 42.29 35.7126 42.29C35.8444 42.3779 35.9616 42.4512 36.0934 42.5391C36.152 42.583 36.2106 42.627 36.2692 42.6563C36.4743 42.7881 36.6794 42.9199 36.8844 43.0371C36.9137 43.0518 36.943 43.0664 36.9723 43.0957C37.1481 43.1982 37.3385 43.3008 37.529 43.4033C37.5876 43.4326 37.6608 43.4766 37.7194 43.5059C37.8512 43.5791 37.9684 43.6377 38.1003 43.7109C38.1149 43.7256 38.1442 43.7256 38.1589 43.7402C38.4225 43.8721 38.6862 43.9893 38.9645 44.1211C39.0231 44.1504 39.0817 44.165 39.1403 44.1943C39.36 44.2822 39.5798 44.3701 39.7995 44.458C39.8874 44.4873 39.9899 44.5313 40.0778 44.5606C40.2829 44.6338 40.488 44.707 40.6784 44.7656C40.7663 44.7949 40.8542 44.8242 40.9567 44.8535C41.2497 44.9414 41.528 45.0586 41.8356 45.1025C57.363 47.666 60.9372 35.7422 60.9372 35.7422C57.7145 40.3857 51.4743 42.5977 44.8092 40.8691C44.5163 40.7959 44.2233 40.708 43.9303 40.6201C43.8424 40.5908 43.7546 40.5615 43.6667 40.5322C43.4616 40.459 43.2565 40.4004 43.0514 40.3125C42.9635 40.2832 42.861 40.2393 42.7731 40.21C42.5534 40.1221 42.3337 40.0342 42.1139 39.9463C42.0553 39.917 41.9967 39.9023 41.9381 39.8731C41.6598 39.7559 41.3962 39.624 41.1325 39.4922C41.0006 39.4336 40.8542 39.3604 40.7223 39.2871C40.6491 39.2432 40.5612 39.1992 40.488 39.1699C40.3122 39.082 40.151 38.9795 39.9753 38.877C39.9313 38.8477 39.8874 38.833 39.8581 38.8037C39.653 38.6865 39.4479 38.5547 39.2428 38.4229C39.1842 38.3789 39.111 38.335 39.0524 38.291C38.9206 38.2031 38.7887 38.1152 38.6569 38.0273C38.3639 37.8369 38.1003 37.6172 37.8219 37.4121C37.7633 37.3535 37.6901 37.3096 37.6315 37.2656C34.7165 34.9658 32.402 31.8164 31.3034 28.2422C30.1462 24.5361 30.3952 20.3906 32.402 17.0215" fill="white"/>
<path d="M40.7517 16.7432C38.9792 19.3506 38.8034 22.5732 40.0339 25.459C41.323 28.5205 43.9743 30.9082 47.0798 32.0361C47.2116 32.0801 47.3288 32.124 47.4607 32.168C47.5193 32.1826 47.5779 32.1973 47.6365 32.2266C47.8122 32.2852 48.0027 32.3438 48.1931 32.3877C56.7478 34.043 59.0622 27.9932 59.6921 27.0996C57.656 30.0293 54.2429 30.7324 50.0534 29.707C49.7165 29.6338 49.365 29.502 49.0427 29.3994C48.6325 29.2529 48.2224 29.0918 47.8415 28.9014C47.0945 28.5498 46.3913 28.1104 45.7322 27.6123C41.9822 24.7705 39.6531 19.3359 42.0993 14.9121" fill="white"/>
</svg>
