<svg width="75" height="75" viewBox="0 0 75 75" fill="none" xmlns="http://www.w3.org/2000/svg">
<path d="M71.1913 3.80875H3.80908V71.1913H71.1913V3.80875Z" fill="#F0DB4F"/>
<path d="M40.4782 56.3612C40.4782 62.9188 36.6277 65.912 31.0174 65.912C25.9489 65.912 23.016 63.295 21.5117 60.1216L26.6706 57.0081C27.6633 58.7678 28.5658 60.2566 30.7467 60.2566C32.8222 60.2566 34.1461 59.4445 34.1461 56.2711V34.7476H40.4782V56.3612Z" fill="#323330"/>
<path d="M55.4591 65.912C49.5782 65.912 45.7729 63.1143 43.9229 59.4445L49.0819 56.4662C50.4355 58.6774 52.2102 60.3167 55.3237 60.3167C57.9408 60.3167 59.6251 59.0083 59.6251 57.1885C59.6251 55.0225 57.9106 54.2558 55.0079 52.9771L53.4287 52.3004C48.8563 50.36 45.833 47.9083 45.833 42.7496C45.833 37.9966 49.4578 34.3868 55.0978 34.3868C59.1288 34.3868 62.0166 35.7856 64.0923 39.4556L59.1588 42.6141C58.076 40.6737 56.9028 39.9069 55.0829 39.9069C53.2328 39.9069 52.0596 41.0802 52.0596 42.6141C52.0596 44.5093 53.2328 45.2766 55.9552 46.4644L57.5343 47.1413C62.9189 49.4426 65.9421 51.8042 65.9421 57.0984C65.9424 62.7835 61.4601 65.912 55.4591 65.912Z" fill="#323330"/>
</svg>
