<svg width="167" height="50" viewBox="0 0 167 50" fill="none" xmlns="http://www.w3.org/2000/svg">
<path d="M61.7 33V15.5H65.5L71.075 26.6L76.575 15.5H80.375V33H77.175V20.925L72.3 30.5H69.775L64.9 20.925V33H61.7ZM88.3453 33.3C86.7953 33.3 85.5953 32.8167 84.7453 31.85C83.912 30.8833 83.4953 29.4667 83.4953 27.6V20.6H86.6703V27.3C86.6703 28.3667 86.887 29.1833 87.3203 29.75C87.7536 30.3167 88.437 30.6 89.3703 30.6C90.2536 30.6 90.9786 30.2833 91.5453 29.65C92.1286 29.0167 92.4203 28.1333 92.4203 27V20.6H95.6203V33H92.7953L92.5453 30.9C92.162 31.6333 91.6036 32.2167 90.8703 32.65C90.1536 33.0833 89.312 33.3 88.3453 33.3ZM104.605 33.3C103.439 33.3 102.397 33.0167 101.48 32.45C100.564 31.8833 99.8386 31.1083 99.3053 30.125C98.7719 29.1417 98.5053 28.025 98.5053 26.775C98.5053 25.525 98.7719 24.4167 99.3053 23.45C99.8386 22.4667 100.564 21.7 101.48 21.15C102.397 20.5833 103.439 20.3 104.605 20.3C105.539 20.3 106.355 20.475 107.055 20.825C107.755 21.175 108.322 21.6667 108.755 22.3V15H111.955V33H109.105L108.755 31.225C108.355 31.775 107.822 32.2583 107.155 32.675C106.505 33.0917 105.655 33.3 104.605 33.3ZM105.28 30.5C106.314 30.5 107.155 30.1583 107.805 29.475C108.472 28.775 108.805 27.8833 108.805 26.8C108.805 25.7167 108.472 24.8333 107.805 24.15C107.155 23.45 106.314 23.1 105.28 23.1C104.264 23.1 103.422 23.4417 102.755 24.125C102.089 24.8083 101.755 25.6917 101.755 26.775C101.755 27.8583 102.089 28.75 102.755 29.45C103.422 30.15 104.264 30.5 105.28 30.5ZM119.639 19.6L113.989 16.9V14.3L119.639 17.35V19.6ZM121.734 33V15.5H127.709C129.759 15.5 131.443 15.8667 132.759 16.6C134.093 17.3167 135.076 18.3333 135.709 19.65C136.359 20.95 136.684 22.4833 136.684 24.25C136.684 26.0167 136.359 27.5583 135.709 28.875C135.076 30.175 134.093 31.1917 132.759 31.925C131.443 32.6417 129.759 33 127.709 33H121.734ZM124.934 30.25H127.559C129.026 30.25 130.184 30.0167 131.034 29.55C131.884 29.0667 132.493 28.3833 132.859 27.5C133.226 26.6 133.409 25.5167 133.409 24.25C133.409 23 133.226 21.925 132.859 21.025C132.493 20.125 131.884 19.4333 131.034 18.95C130.184 18.4667 129.026 18.225 127.559 18.225H124.934V30.25ZM145.458 33.3C144.208 33.3 143.099 33.0333 142.133 32.5C141.166 31.9667 140.408 31.2167 139.858 30.25C139.308 29.2833 139.033 28.1667 139.033 26.9C139.033 25.6167 139.299 24.475 139.833 23.475C140.383 22.475 141.133 21.7 142.083 21.15C143.049 20.5833 144.183 20.3 145.483 20.3C146.699 20.3 147.774 20.5667 148.708 21.1C149.641 21.6333 150.366 22.3667 150.883 23.3C151.416 24.2167 151.683 25.2417 151.683 26.375C151.683 26.5583 151.674 26.75 151.658 26.95C151.658 27.15 151.649 27.3583 151.633 27.575H142.208C142.274 28.5417 142.608 29.3 143.208 29.85C143.824 30.4 144.566 30.675 145.433 30.675C146.083 30.675 146.624 30.5333 147.058 30.25C147.508 29.95 147.841 29.5667 148.058 29.1H151.308C151.074 29.8833 150.683 30.6 150.133 31.25C149.599 31.8833 148.933 32.3833 148.133 32.75C147.349 33.1167 146.458 33.3 145.458 33.3ZM145.483 22.9C144.699 22.9 144.008 23.125 143.408 23.575C142.808 24.0083 142.424 24.675 142.258 25.575H148.433C148.383 24.7583 148.083 24.1083 147.533 23.625C146.983 23.1417 146.299 22.9 145.483 22.9ZM157.236 33L152.686 20.6H156.036L159.186 29.975L162.336 20.6H165.686L161.111 33H157.236Z" fill="white"/>
<path d="M15.7 38V20.5H19.5L25.075 31.6L30.575 20.5H34.375V38H31.175V25.925L26.3 35.5H23.775L18.9 25.925V38H15.7Z" fill="white"/>
<path d="M15.7 29V11.5H19.5L25.075 22.6L30.575 11.5H34.375V29H31.175V16.925L26.3 26.5H23.775L18.9 16.925V29H15.7Z" fill="white"/>
<rect x="1" y="1" width="48" height="48" rx="24" stroke="white" stroke-width="2"/>
</svg>
