<svg width="75" height="75" viewBox="0 0 75 75" fill="none" xmlns="http://www.w3.org/2000/svg">
<path d="M59.7986 30.1078C59.6768 27.9094 60.2885 25.8305 59.3088 24.1219C56.8643 19.8445 50.7565 17.4024 38.5361 17.4024V17.2781V17.4C25.0947 17.4 19.3525 19.8445 16.9104 24.1195C16.08 26.0012 15.7035 28.0516 15.8111 30.1055C15.36 31.9851 15.1544 33.9152 15.1994 35.8477C15.565 38.5359 15.8111 41.2242 16.1768 43.6664C16.5424 45.743 19.4768 47.332 19.8424 49.2914C20.576 54.5461 25.219 56.9883 38.658 56.9883V57.6H38.4236V56.9883C50.6416 56.9883 55.7674 54.5438 56.508 49.2914C56.7424 47.3367 59.1963 45.7477 59.5549 43.6664C59.9205 41.2219 60.0447 38.5336 60.4104 35.8477C60.4077 33.9183 60.2026 31.9945 59.7986 30.1078V30.1078Z" fill="#EFCCA3"/>
<path d="M37.9265 32.0625C39.9254 32.2452 41.7707 33.2117 43.0593 34.7508C44.7702 36.218 47.5804 37.1953 48.8015 38.5383C50.2883 39.771 51.4261 41.3718 52.1015 43.1812C52.5687 44.8944 52.8152 46.6603 52.8351 48.4359C52.8351 49.0477 53.2007 48.9258 54.178 48.4359C56.1139 47.2543 57.8469 45.769 59.3108 44.0367C58.9452 46.1133 56.3788 47.9461 56.1351 49.8961C55.4015 55.1508 50.2757 57.7148 37.6851 57.7148H38.4187" fill="#CCAC8D"/>
<path d="M45.7477 27.9094C46.2375 29.4984 47.8242 34.9969 44.6484 33.1641C45.8069 34.0742 46.5895 35.3791 46.8469 36.8297C47.0003 37.6075 47.3663 38.3276 47.9041 38.9101C48.4419 39.4926 49.1306 39.9148 49.8938 40.1297C52.0042 40.4426 54.1532 39.9159 55.8797 38.6625C56.893 37.6915 57.5875 36.4356 57.8712 35.0612C58.155 33.6868 58.0146 32.2586 57.4688 30.9656C57.097 29.9129 56.4241 28.9926 55.5336 28.3193C54.6431 27.6459 53.5743 27.249 52.4602 27.1781C50.1562 26.5641 45.2578 26.0766 45.7477 27.9094Z" fill="#CCAC8D"/>
<path d="M51.9796 38.2945C54.4765 38.2945 56.5007 36.2704 56.5007 33.7734C56.5007 31.2765 54.4765 29.2523 51.9796 29.2523C49.4827 29.2523 47.4585 31.2765 47.4585 33.7734C47.4585 36.2704 49.4827 38.2945 51.9796 38.2945Z" fill="black"/>
<path d="M50.7563 32.918C51.4306 32.918 51.9773 32.3713 51.9773 31.6969C51.9773 31.0225 51.4306 30.4758 50.7563 30.4758C50.0819 30.4758 49.5352 31.0225 49.5352 31.6969C49.5352 32.3713 50.0819 32.918 50.7563 32.918Z" fill="white"/>
<path d="M45.0141 33.5297C47.3129 35.1425 49.4418 36.9848 51.368 39.0281C53.5664 41.8406 53.5664 42.3281 53.5664 42.3281L51.9773 43.0617C50.7894 40.7435 49.0739 38.7365 46.9688 37.2024C44.1563 35.6133 43.793 34.2703 43.793 34.2703L45.0141 33.5297Z" fill="#EFCCA3"/>
<path d="M38.0508 32.0625C35.9464 32.24 33.9848 33.199 32.5523 34.7508C30.8414 36.218 27.7875 37.1953 26.693 38.5383C25.1687 39.7627 23.9894 41.3628 23.2711 43.1812C22.8039 44.8944 22.5574 46.6603 22.5375 48.4359C22.5375 49.0477 22.6594 49.1695 21.0703 48.4359C19.1061 47.2938 17.3667 45.803 15.9375 44.0367C16.3031 46.1133 18.8695 47.9461 19.1133 49.8961C19.8469 55.0289 24.9727 57.593 37.5633 57.593H38.4188" fill="#CCAC8D"/>
<path d="M49.779 40.493C48.3771 38.6331 46.5705 37.1166 44.496 36.058C42.4215 34.9994 40.1334 34.4266 37.8048 34.3828V34.3828C35.479 34.4412 33.196 35.0204 31.1237 36.0778C29.0514 37.1353 27.2426 38.644 25.8306 40.493C24.89 41.4723 24.182 42.6507 23.7588 43.9409C23.3356 45.2311 23.2082 46.6 23.386 47.9461C23.386 58.8211 27.1735 55.5211 29.7399 56.8664C32.2958 57.7192 35.0141 57.9703 37.6829 57.6V57.6C40.3516 57.9759 43.0712 57.7247 45.6259 56.8664C48.1923 55.5234 51.9798 58.8211 51.9798 47.9461C52.2828 46.6193 52.2395 45.2369 51.8541 43.9317C51.4687 42.6265 50.7541 41.4423 49.779 40.493V40.493Z" fill="#56332B"/>
<path d="M37.5611 37.4391C37.469 39.4751 37.0992 41.489 36.4619 43.425L37.8049 43.0594L37.5611 37.4391Z" fill="#442823"/>
<path d="M37.9264 37.4391C38.0185 39.4751 38.3883 41.489 39.0256 43.425L37.6826 43.0594L37.9264 37.4391Z" fill="#442823"/>
<path d="M33.6517 36.218C33.1619 34.9969 34.9947 33.0422 37.9291 33.0422C40.8635 33.0422 42.6939 34.9969 42.2064 36.218C41.7189 37.4391 39.7619 37.807 37.9291 37.807C35.972 37.8047 34.1392 37.4391 33.6517 36.218Z" fill="#56332B"/>
<path d="M37.9266 37.4391C37.9266 37.2047 39.6375 37.2047 40.6148 36.5836C40.6148 36.5836 38.6602 37.1953 38.2922 36.9492C38.0394 36.7256 37.8673 36.4249 37.8023 36.0938C37.7374 36.4249 37.5652 36.7256 37.3125 36.9492C36.9469 37.1836 34.7461 36.5836 34.7461 36.5836C35.7044 36.7952 36.6447 37.0813 37.5586 37.4391V38.4164C37.4821 40.0085 37.5606 41.6043 37.793 43.1812C38.1586 43.6711 38.0273 39.7594 38.0273 38.4164C37.9411 38.0982 37.9071 37.7682 37.9266 37.4391Z" fill="black"/>
<path d="M37.9268 44.4023C39.3079 44.5866 40.6151 45.135 41.7143 45.9914C40.7586 44.753 39.4312 43.8535 37.9268 43.425C36.2014 43.7994 34.6769 44.8018 33.6494 46.2375C34.8539 45.2027 36.3468 44.5621 37.9268 44.4023V44.4023Z" fill="#7F4A41"/>
<path d="M37.6827 53.4375C35.7661 53.3316 33.8732 52.9618 32.0577 52.3383C31.6921 52.2164 31.3241 52.4601 30.9585 52.3383C28.0057 51.5016 25.3955 49.7476 23.5054 47.3297V47.8195C23.5054 58.6945 27.2929 55.3945 29.8593 56.7398C32.4151 57.5926 35.1334 57.8437 37.8022 57.4734V57.4734C40.4709 57.8493 43.1905 57.5982 45.7452 56.7398C48.3116 55.3969 52.0991 58.6945 52.0991 47.8195V46.7203C50.2906 49.3765 47.6154 51.3218 44.5312 52.2234C44.1655 52.3453 43.5538 52.1016 43.1882 52.1016C41.4437 52.8607 39.5811 53.3127 37.6827 53.4375V53.4375Z" fill="#442823"/>
<path d="M32.6741 47.5781C32.6741 47.5781 31.3312 51.4875 32.3085 53.2031L31.0874 52.7133C31.4882 50.9646 32.0186 49.2481 32.6741 47.5781V47.5781Z" fill="#442823"/>
<path d="M42.9375 47.5781C42.9375 47.5781 44.2805 51.4875 43.3031 53.2031L44.5313 52.7133C44.1868 50.9491 43.6525 49.2273 42.9375 47.5781V47.5781Z" fill="#442823"/>
<path d="M29.4962 27.9094C29.0064 29.4984 27.4197 34.9969 30.5955 33.1641C29.437 34.0742 28.6544 35.3791 28.397 36.8297C28.2436 37.6075 27.8776 38.3276 27.3398 38.9101C26.802 39.4926 26.1133 39.9148 25.3501 40.1297C23.2379 40.4478 21.0852 39.9243 19.3548 38.6719C18.3416 37.7009 17.6471 36.445 17.3633 35.0706C17.0796 33.6961 17.2199 32.2679 17.7658 30.975C18.1375 29.9223 18.8104 29.002 19.7009 28.3286C20.5914 27.6552 21.6602 27.2584 22.7744 27.1875C25.0994 26.5641 29.9861 26.0766 29.4962 27.9094Z" fill="#CCAC8D"/>
<path d="M37.8047 43.425C39.3192 43.8514 40.6732 44.7174 41.6953 45.9135C42.7175 47.1096 43.3618 48.5821 43.5469 50.1445V49.9102C43.5084 48.2874 42.9189 46.726 41.8753 45.4827C40.8317 44.2393 39.3962 43.3881 37.8047 43.0688C36.2032 43.3673 34.7551 44.2128 33.7078 45.4606C32.6604 46.7084 32.0789 48.2812 32.0625 49.9102V50.1445C32.2679 48.5894 32.9196 47.1271 33.9387 45.9346C34.9578 44.742 36.3006 43.8704 37.8047 43.425Z" fill="black"/>
<path d="M38.9626 36.1897C39.1581 36.1393 39.2346 35.7804 39.1335 35.388C39.0323 34.9957 38.7918 34.7186 38.5962 34.769C38.4007 34.8194 38.3242 35.1783 38.4254 35.5706C38.5265 35.963 38.7671 36.2401 38.9626 36.1897Z" fill="#331712"/>
<path d="M36.9324 35.608C37.0524 35.221 36.9934 34.8588 36.8005 34.799C36.6077 34.7392 36.354 35.0044 36.234 35.3913C36.1139 35.7783 36.1729 36.1405 36.3658 36.2003C36.5587 36.2601 36.8123 35.9949 36.9324 35.608Z" fill="#331712"/>
<path d="M23.5104 38.2945C26.0073 38.2945 28.0314 36.2704 28.0314 33.7734C28.0314 31.2765 26.0073 29.2523 23.5104 29.2523C21.0134 29.2523 18.9893 31.2765 18.9893 33.7734C18.9893 36.2704 21.0134 38.2945 23.5104 38.2945Z" fill="black"/>
<path d="M24.7313 32.918C25.4057 32.918 25.9524 32.3713 25.9524 31.6969C25.9524 31.0225 25.4057 30.4758 24.7313 30.4758C24.057 30.4758 23.5103 31.0225 23.5103 31.6969C23.5103 32.3713 24.057 32.918 24.7313 32.918Z" fill="white"/>
<path d="M39.1404 33.7734C39.1404 33.7734 37.9193 34.2633 37.6732 34.3852C37.1586 34.2491 36.665 34.0433 36.2061 33.7734H39.1404Z" fill="#7F4A41"/>
<path d="M30.2345 33.5297C27.9357 35.1425 25.8068 36.9848 23.8806 39.0281C21.6821 41.8406 21.6821 42.3281 21.6821 42.3281L23.2712 43.0617C24.4591 40.7435 26.1747 38.7365 28.2798 37.2024C31.0923 35.6133 31.4556 34.2703 31.4556 34.2703L30.2345 33.5297Z" fill="#EFCCA3"/>
<path d="M21.3092 25.343C20.4577 27.5973 18.8629 29.4938 16.7881 30.7195C18.0839 30.5659 19.2726 29.9246 20.1125 28.9258C20.9523 27.9271 21.3802 26.6459 21.3092 25.343V25.343Z" fill="#CCAC8D"/>
<path d="M53.6907 25.343C54.5422 27.5973 56.137 29.4938 58.2118 30.7195C56.916 30.5659 55.7273 29.9246 54.8874 28.9258C54.0476 27.9271 53.6197 26.6459 53.6907 25.343Z" fill="#CCAC8D"/>
<path d="M45.2579 32.4281C43.2939 30.5492 40.7542 29.3867 38.0485 29.1281H38.4142C37.061 29.1118 35.7215 29.3999 34.4947 29.9711C33.2679 30.5424 32.1852 31.3821 31.3267 32.4281C33.3431 30.8322 35.8426 29.9701 38.4142 29.9836V29.9836C40.8753 30.1605 43.2416 31.0057 45.2579 32.4281V32.4281Z" fill="#CCAC8D"/>
<path d="M41.5923 25.7086C40.698 24.5323 39.3855 23.7451 37.9267 23.5102H38.2923C37.561 23.5349 36.8489 23.7509 36.2271 24.1367C35.6054 24.5224 35.0955 25.0644 34.7485 25.7086C35.6756 24.7346 36.9483 24.1639 38.2923 24.1195V24.1195C38.9237 24.1344 39.5447 24.2838 40.1138 24.5579C40.6829 24.8319 41.1869 25.2242 41.5923 25.7086V25.7086Z" fill="#CCAC8D"/>
<path d="M23.5101 41.5922C22.2295 42.2519 20.7535 42.4259 19.3546 42.082H18.8671C17.8996 41.0852 17.1872 39.8695 16.7905 38.5383C17.2981 39.8176 18.2816 40.8505 19.5346 41.4199C20.7876 41.9894 22.2125 42.0511 23.5101 41.5922Z" fill="#CCAC8D"/>
<path d="M51.8579 41.5922C53.1385 42.2519 54.6145 42.4259 56.0134 42.082H55.5235C56.2424 41.794 56.8649 41.3084 57.3191 40.6812C57.7733 40.054 58.0406 39.311 58.0899 38.5383C57.9021 39.162 57.5876 39.7403 57.166 40.2369C56.7444 40.7335 56.2249 41.1378 55.64 41.4244C55.055 41.7111 54.4172 41.8739 53.7664 41.9028C53.1157 41.9317 52.4659 41.8259 51.8579 41.5922V41.5922Z" fill="#CCAC8D"/>
<path d="M26.3203 25.0992C28.0655 24.7565 29.8673 24.8369 31.575 25.3336C33.7734 26.0672 32.0648 28.9992 32.4305 29.1211C33.1348 28.4794 33.9677 27.995 34.8736 27.7C35.7796 27.405 36.738 27.3062 37.6852 27.4101C41.8406 27.6445 42.3281 29.4867 42.9398 29.1211C43.5516 28.8867 42.3281 23.9883 48.682 25.0898C48.682 25.0898 42.2062 23.3789 42.45 28.0219C41.1128 27.1482 39.5589 26.6636 37.9622 26.6222C36.3654 26.5808 34.7885 26.9843 33.4078 27.7875C33.4078 27.7875 34.7508 23.2664 26.3203 25.0992Z" fill="#CCAC8D"/>
<path d="M24.6095 18.75C24.6095 18.75 18.9845 25.7156 18.2556 28.4016C17.4001 31.0898 16.7884 42.3305 16.0571 43.9195L13.4907 32.918L18.2556 21.4336L24.6095 18.75Z" fill="#CCAC8D"/>
<path d="M50.7563 18.75C50.7563 18.75 56.3813 25.7156 57.1103 28.4016C57.9657 31.0898 58.5774 42.3305 59.3087 43.9195L61.8751 32.918L57.1103 21.4336L50.7563 18.75Z" fill="#CCAC8D"/>
<path d="M50.3906 18.75C53.8009 21.6474 56.4445 25.3407 58.0875 29.5031C59.7984 35.2453 59.0648 42.3328 60.4101 43.1883C62.3648 44.4094 64.4414 37.0781 65.175 36.3469C66.2742 35.1258 70.0617 31.9477 70.3078 31.3383C70.5539 30.7289 62.7328 22.1742 59.189 20.4633C55.2773 18.4992 50.1562 18.2555 50.3906 18.75Z" fill="#56332B"/>
<path d="M55.5234 21.7969C59.8494 27.6945 62.2788 34.7686 62.4891 42.0797L65.3016 36.3375C63.1929 30.8088 59.8484 25.8352 55.5234 21.7969V21.7969Z" fill="#442823"/>
<path d="M24.6094 18.75C21.1991 21.6474 18.5555 25.3407 16.9125 29.5031C15.2016 35.2453 15.9352 42.3328 14.5899 43.1883C12.6352 44.4094 10.5586 37.0781 9.82501 36.3469C8.72579 35.1258 4.93829 31.9477 4.6922 31.3383C4.4461 30.7289 12.2672 22.1742 15.8109 20.4633C19.7227 18.4992 24.8438 18.2555 24.6094 18.75Z" fill="#56332B"/>
<path d="M19.4766 21.7969C15.1506 27.6945 12.7212 34.7686 12.5109 42.0797L9.70312 36.3281C11.8117 30.8032 15.1545 25.833 19.4766 21.7969V21.7969Z" fill="#442823"/>
<path d="M15.5674 42.2039C15.7607 43.5045 16.2177 44.7519 16.9104 45.8695C17.7658 46.725 17.1447 45.1359 17.1447 45.1359C17.1447 45.1359 16.2893 44.6461 16.4111 41.1047C16.533 37.5633 15.5674 42.2039 15.5674 42.2039Z" fill="#CCAC8D"/>
<path d="M59.5549 42.2039C59.3616 43.5045 58.9046 44.7519 58.2119 45.8695C57.3565 46.725 57.9776 45.1359 57.9776 45.1359C57.9776 45.1359 58.833 44.6461 58.7112 41.1047C58.5776 37.6828 59.5549 42.2039 59.5549 42.2039Z" fill="#CCAC8D"/>
<path d="M32.5521 40.493C32.7541 40.493 32.9178 40.3293 32.9178 40.1273C32.9178 39.9254 32.7541 39.7617 32.5521 39.7617C32.3502 39.7617 32.1865 39.9254 32.1865 40.1273C32.1865 40.3293 32.3502 40.493 32.5521 40.493Z" fill="#442823"/>
<path d="M30.1078 43.0594C30.3097 43.0594 30.4734 42.8957 30.4734 42.6938C30.4734 42.4918 30.3097 42.3281 30.1078 42.3281C29.9059 42.3281 29.7422 42.4918 29.7422 42.6938C29.7422 42.8957 29.9059 43.0594 30.1078 43.0594Z" fill="#442823"/>
<path d="M29.3744 40.493C29.5763 40.493 29.74 40.3293 29.74 40.1273C29.74 39.9254 29.5763 39.7617 29.3744 39.7617C29.1725 39.7617 29.0088 39.9254 29.0088 40.1273C29.0088 40.3293 29.1725 40.493 29.3744 40.493Z" fill="#442823"/>
<path d="M42.5717 40.493C42.7736 40.493 42.9373 40.3293 42.9373 40.1273C42.9373 39.9254 42.7736 39.7617 42.5717 39.7617C42.3698 39.7617 42.2061 39.9254 42.2061 40.1273C42.2061 40.3293 42.3698 40.493 42.5717 40.493Z" fill="#442823"/>
<path d="M44.892 43.0594C45.0939 43.0594 45.2576 42.8957 45.2576 42.6938C45.2576 42.4918 45.0939 42.3281 44.892 42.3281C44.6901 42.3281 44.5264 42.4918 44.5264 42.6938C44.5264 42.8957 44.6901 43.0594 44.892 43.0594Z" fill="#442823"/>
<path d="M45.6259 40.493C45.8278 40.493 45.9915 40.3293 45.9915 40.1273C45.9915 39.9254 45.8278 39.7617 45.6259 39.7617C45.4239 39.7617 45.2603 39.9254 45.2603 40.1273C45.2603 40.3293 45.4239 40.493 45.6259 40.493Z" fill="#442823"/>
</svg>
