<svg width="75" height="75" viewBox="0 0 75 75" fill="none" xmlns="http://www.w3.org/2000/svg">
<path d="M37.5 66.7969C53.6802 66.7969 66.7969 53.6802 66.7969 37.5C66.7969 21.3198 53.6802 8.20312 37.5 8.20312C21.3198 8.20312 8.20312 21.3198 8.20312 37.5C8.20312 53.6802 21.3198 66.7969 37.5 66.7969Z" fill="#CC6699"/>
<path d="M53.2619 24.4922C52.9103 23.0859 51.9142 21.9141 50.3908 21.0938C47.4025 19.5117 42.5978 19.4531 38.2033 21.0352C35.5666 21.9727 30.5861 24.082 26.8361 27.5391C23.0861 31.0547 22.5002 34.1602 22.7931 35.3906C23.4377 38.7891 27.0119 41.1914 29.8244 43.1836C30.5861 43.7109 31.2892 44.1797 31.8166 44.6484C30.2345 45.4688 25.9572 47.8711 24.7853 50.3906C23.9064 52.3828 24.3166 53.8477 24.6681 54.4922C25.0197 55.2539 25.6056 55.8399 26.1916 56.0156C26.7775 56.1914 27.422 56.25 28.0666 56.25C30.5861 56.25 33.047 54.9024 34.5705 52.6172C36.0939 50.332 36.2111 47.2852 35.508 45.4102C36.5041 45.1758 37.5588 45.1758 38.7306 45.293C41.0158 45.5859 42.1291 46.4649 42.6564 47.168C43.2423 47.9297 43.3595 48.6914 43.3009 49.1602C43.1838 50.0391 42.4806 50.5664 42.1291 50.8008C41.8361 50.9766 41.6017 51.1524 41.6603 51.5039C41.7775 51.9727 42.2463 51.9141 42.422 51.9141C42.9494 51.7969 44.8244 50.8594 44.9416 48.75C45.0002 47.4609 44.4728 46.1719 43.4767 45.1172C42.1877 43.7695 40.2541 43.0664 38.0275 43.125C36.3869 43.125 35.2736 43.3008 34.3947 43.5938L34.3361 43.5352C33.5158 42.6563 32.4025 41.8359 31.4064 41.0156C29.0627 39.2578 26.8947 37.5586 27.0119 35.0391C27.1877 31.875 30.2931 28.7695 36.3283 25.7813C41.6603 23.1445 45.9963 23.0274 48.2814 23.8477C49.2189 24.1992 49.8634 24.668 50.0978 25.1953C50.5666 26.1914 50.3908 27.4805 49.5705 28.8867C48.2228 31.2305 44.8244 34.1602 39.6095 34.7461C36.4455 35.0977 35.0978 33.6914 35.0392 33.6328C34.6877 33.2227 34.4533 32.9883 34.0431 33.2227C33.5744 33.457 33.8088 34.1016 33.9259 34.3359C34.1603 34.9805 35.1564 36.0938 36.8556 36.6797C38.2033 37.1484 41.6603 37.4414 45.9377 35.8008C50.8595 33.8086 54.258 28.5352 53.2619 24.4922ZM33.047 49.4531C32.9884 49.5703 32.9884 49.6875 32.9298 49.8047C32.8713 49.9219 32.8127 50.0391 32.8127 50.1563C32.5783 50.6836 32.2267 51.2109 31.758 51.6797C30.4103 53.1445 28.5939 53.5547 28.008 53.2031C27.8322 53.0859 27.7736 52.9102 27.715 52.6758C27.5978 51.9727 28.008 50.5664 29.2384 49.3359C30.7033 47.8125 32.7541 46.6992 33.2228 46.4649C33.3986 47.5195 33.34 48.5156 33.047 49.4531Z" fill="white"/>
</svg>
