<svg width="75" height="75" viewBox="0 0 75 75" fill="none" xmlns="http://www.w3.org/2000/svg">
<path fill-rule="evenodd" clip-rule="evenodd" d="M62.0647 18.7403H12.385H9.41606V57.6739H62.0647V55.2102V55.1983V18.7403ZM12.8836 17.7657H62.5521C62.8215 17.7657 63.0394 17.9876 63.0394 18.2529V54.711H65.5348V15.7812H12.8836V17.7657ZM32.7588 23.1451H16.2746V37.1356H32.7588V23.1451ZM15.7873 22.1707H33.2461C33.5135 22.1707 33.7329 22.3885 33.7329 22.6576V37.6227C33.7329 37.8883 33.5133 38.1101 33.2461 38.1101H15.7873C15.5179 38.1101 15.3003 37.8881 15.3003 37.6227V22.6576C15.3003 22.3885 15.5179 22.1707 15.7873 22.1707ZM35.1173 24.7016C34.85 24.7016 34.632 24.4841 34.632 24.2145C34.632 23.949 34.85 23.7273 35.1173 23.7273H55.6953C55.9647 23.7273 56.1827 23.9491 56.1827 24.2145C56.1827 24.4841 55.9647 24.7016 55.6953 24.7016H35.1173ZM35.1173 27.6645C34.85 27.6645 34.632 27.4466 34.632 27.1773C34.632 26.9081 34.85 26.6901 35.1173 26.6901H55.6953C55.9647 26.6901 56.1827 26.9081 56.1827 27.1773C56.1827 27.4466 55.9647 27.6645 55.6953 27.6645H35.1173ZM35.1173 30.6275C34.85 30.6275 34.632 30.4095 34.632 30.1403C34.632 29.871 34.85 29.6531 35.1173 29.6531H55.6953C55.9647 29.6531 56.1827 29.871 56.1827 30.1403C56.1827 30.4095 55.9647 30.6275 55.6953 30.6275H35.1173ZM35.1173 33.5863C34.85 33.5863 34.632 33.3687 34.632 33.1031C34.632 32.8335 34.85 32.6159 35.1173 32.6159H55.6953C55.9647 32.6159 56.1827 32.8335 56.1827 33.1031C56.1827 33.3687 55.9647 33.5863 55.6953 33.5863H35.1173ZM35.1173 36.5493C34.85 36.5493 34.632 36.3316 34.632 36.0622C34.632 35.7928 34.85 35.5749 35.1173 35.5749H55.6953C55.9647 35.5749 56.1827 35.7928 56.1827 36.0622C56.1827 36.3316 55.9647 36.5493 55.6953 36.5493H35.1173ZM38.2348 40.2531H55.6953C55.9647 40.2531 56.1827 40.4706 56.1827 40.74V55.7052C56.1827 55.9746 55.9647 56.1924 55.6953 56.1924H38.2348C37.9675 56.1924 37.748 55.9746 37.748 55.7052V40.74C37.7479 40.4706 37.9673 40.2531 38.2348 40.2531ZM55.2085 41.2274H38.7222V55.2181H55.2085V41.2274ZM36.3651 41.8097C36.633 41.8097 36.8504 42.0276 36.8504 42.297C36.8504 42.5661 36.633 42.7841 36.3651 42.7841H15.7873C15.5179 42.7841 15.3003 42.5661 15.3003 42.297C15.3003 42.0276 15.5177 41.8097 15.7873 41.8097H36.3651ZM36.3651 44.7726C36.633 44.7726 36.8504 44.9906 36.8504 45.2595C36.8504 45.529 36.633 45.747 36.3651 45.747H15.7873C15.5179 45.747 15.3003 45.529 15.3003 45.2595C15.3003 44.9906 15.5177 44.7726 15.7873 44.7726H36.3651ZM36.3651 47.7355C36.633 47.7355 36.8504 47.9532 36.8504 48.2226C36.8504 48.4882 36.633 48.71 36.3651 48.71H15.7873C15.5179 48.71 15.3003 48.488 15.3003 48.2226C15.3003 47.9532 15.5177 47.7355 15.7873 47.7355H36.3651ZM36.3651 50.6985C36.633 50.6985 36.8504 50.9162 36.8504 51.1817C36.8504 51.4513 36.633 51.6689 36.3651 51.6689H15.7873C15.5179 51.6689 15.3003 51.4513 15.3003 51.1817C15.3003 50.9162 15.5177 50.6985 15.7873 50.6985H36.3651ZM9.88701 60.827C9.61968 60.827 9.40024 60.609 9.40024 60.3396C9.40024 60.0703 9.61982 59.8526 9.88701 59.8526H51.1164C51.3835 59.8526 51.6017 60.0703 51.6017 60.3396C51.6017 60.609 51.3837 60.827 51.1164 60.827H9.88701ZM32.4478 62.966C32.1784 62.966 31.9604 62.7483 31.9604 62.4789C31.9604 62.2095 32.1784 61.9916 32.4478 61.9916H63.6179C63.8873 61.9916 64.1047 62.2095 64.1047 62.4789C64.1047 62.7483 63.8873 62.966 63.6179 62.966H32.4478ZM66.8063 62.966C66.539 62.966 66.3214 62.7483 66.3214 62.4789C66.3214 62.2095 66.5388 61.9916 66.8063 61.9916H70.7041C70.9735 61.9916 71.1914 62.2095 71.1914 62.4789C71.1914 62.7483 70.9735 62.966 70.7041 62.966H66.8063ZM4.29644 62.9027C4.02705 62.9027 3.80908 62.6847 3.80908 62.4153C3.80908 62.1459 4.02705 61.9283 4.29644 61.9283H19.0672C19.3366 61.9283 19.5545 62.1459 19.5545 62.4153C19.5545 62.6847 19.3366 62.9027 19.0672 62.9027H4.29644ZM28.5838 12.0339C28.3993 12.0339 28.2075 12.1527 28.1458 12.3071C27.9834 12.6322 28.2312 13.0083 28.5838 13.0083H29.5559C29.7405 13.0083 29.9322 12.8896 29.9939 12.7352C30.1563 12.4103 29.9085 12.0339 29.5559 12.0339H28.5838ZM24.6901 12.0339C24.5056 12.0339 24.3138 12.1527 24.2521 12.3071C24.0897 12.6322 24.3375 13.0083 24.6901 13.0083H25.6622C25.8484 13.0083 26.0385 12.8896 26.1018 12.7352C26.2643 12.4103 26.0149 12.0339 25.6622 12.0339H24.6901ZM20.798 12.0339C20.6119 12.0339 20.4217 12.1527 20.3584 12.3071C20.198 12.6322 20.4459 13.0083 20.798 13.0083H21.7707C21.9547 13.0083 22.145 12.8896 22.2083 12.7352C22.3707 12.4103 22.1234 12.0339 21.7707 12.0339H20.798ZM16.9043 12.0339C16.7204 12.0339 16.528 12.1527 16.4668 12.3071C16.3043 12.6322 16.5516 13.0083 16.9043 13.0083H17.877C18.061 13.0083 18.2533 12.8896 18.3144 12.7352C18.4769 12.4103 18.2296 12.0339 17.877 12.0339H16.9043ZM13.0106 12.0339C12.8267 12.0339 12.6343 12.1527 12.5732 12.3071C12.4108 12.6322 12.6581 13.0083 13.0106 13.0083H13.9848C14.1673 13.0083 14.3611 12.8896 14.4207 12.7352C14.5832 12.4103 14.3375 12.0339 13.9848 12.0339H13.0106ZM9.58013 13.472C9.58013 13.6542 9.69936 13.8481 9.85361 13.9078C10.1785 14.0701 10.5548 13.8247 10.5548 13.472V12.6717C10.6597 12.3628 10.4202 12.0339 10.0911 12.0339H10.0673C9.88335 12.0339 9.69102 12.1527 9.62978 12.3071C9.58818 12.3903 9.57427 12.4737 9.57998 12.5529V13.472H9.58013ZM8.57612 15.3851C8.39214 15.3851 8.1998 15.5042 8.13872 15.6585C7.97627 15.9832 8.22353 16.3595 8.57612 16.3595H9.54878C9.73276 16.3595 9.9251 16.2407 9.98618 16.0863C10.1486 15.7612 9.90078 15.3851 9.54878 15.3851H8.57612ZM5.36973 17.049C5.36973 17.2309 5.49058 17.4253 5.64468 17.4846C5.96958 17.6468 6.34385 17.4014 6.34385 17.049V16.0746C6.34385 15.8923 6.22505 15.6982 6.07095 15.6386C5.74604 15.4765 5.36973 15.7218 5.36973 16.0746V17.049ZM5.36973 20.9427C5.36973 21.1249 5.49058 21.3149 5.64468 21.3785C5.96958 21.5408 6.34385 21.2912 6.34385 20.9427V19.9683C6.34385 19.786 6.22505 19.5921 6.07095 19.5325C5.74604 19.37 5.36973 19.6154 5.36973 19.9683V20.9427ZM5.36973 24.8324C5.36973 25.0186 5.49058 25.2086 5.64468 25.2719C5.96958 25.4343 6.34385 25.1849 6.34385 24.8324V23.8618C6.34385 23.6756 6.22505 23.4855 6.07095 23.4222C5.74604 23.2598 5.36973 23.5095 5.36973 23.8618V24.8324ZM5.36973 28.7261C5.36973 28.9123 5.49058 29.1026 5.64468 29.166C5.96958 29.3282 6.34385 29.0789 6.34385 28.7261V27.7557C6.34385 27.5695 6.22505 27.3796 6.07095 27.3161C5.74604 27.1538 5.36973 27.4032 5.36973 27.7557V28.7261ZM5.36973 32.62C5.36973 32.8022 5.49058 32.9961 5.64468 33.0558C5.96958 33.2181 6.34385 32.9727 6.34385 32.62V31.6456C6.34385 31.4633 6.22505 31.2692 6.07095 31.2098C5.74604 31.0473 5.36973 31.293 5.36973 31.6456V32.62ZM5.36973 36.5138C5.36973 36.6957 5.49058 36.8901 5.64468 36.9496C5.96958 37.1121 6.34385 36.8664 6.34385 36.5138V35.5394C6.34385 35.3572 6.22505 35.1632 6.07095 35.1036C5.74604 34.9413 5.36973 35.1867 5.36973 35.5394V36.5138ZM5.36973 40.4075C5.36973 40.5897 5.49058 40.7838 5.64468 40.8433C5.96958 41.0056 6.34385 40.76 6.34385 40.4075V39.4332C6.34385 39.251 6.22505 39.0568 6.07095 38.9975C5.74604 38.835 5.36973 39.0804 5.36973 39.4332V40.4075ZM5.36973 44.3012C5.36973 44.4834 5.49058 44.6737 5.64468 44.737C5.96958 44.8995 6.34385 44.6541 6.34385 44.3012V43.3268C6.34385 43.1406 6.22505 42.9506 6.07095 42.8874C5.74604 42.7287 5.36973 42.9744 5.36973 43.3268V44.3012ZM5.36973 48.191C5.36973 48.3771 5.49058 48.5671 5.64468 48.6307C5.96958 48.7929 6.34385 48.5437 6.34385 48.191V47.2206C6.34385 47.0343 6.22505 46.8443 6.07095 46.7808C5.74604 46.6185 5.36973 46.8681 5.36973 47.2206V48.191ZM33.4498 13.0085C33.6343 13.0085 33.8261 12.8897 33.8877 12.7353C34.0481 12.4104 33.8023 12.0341 33.4498 12.0341H32.4756C32.2936 12.0341 32.0993 12.1529 32.0397 12.3073C31.8778 12.6323 32.1229 13.0085 32.4756 13.0085H33.4498ZM36.3651 53.6573C36.633 53.6573 36.8504 53.8753 36.8504 54.1447C36.8504 54.4141 36.633 54.6317 36.3651 54.6317H15.7873C15.5179 54.6317 15.3003 54.4141 15.3003 54.1447C15.3003 53.8753 15.5177 53.6573 15.7873 53.6573H36.3651Z" fill="black"/>
</svg>
