<svg width="75" height="75" viewBox="0 0 75 75" fill="none" xmlns="http://www.w3.org/2000/svg">
<path d="M61.3528 13.5588H13.666C12.4285 13.5588 11.416 14.5713 11.416 15.8088V42.9183H63.6028V15.8088C63.6028 14.5713 62.5903 13.5588 61.3528 13.5588ZM26.6612 16.4011H28.0969C28.6125 16.4011 29.0344 16.823 29.0344 17.3386C29.0344 17.8542 28.6125 18.2761 28.0969 18.2761H26.6612C26.1456 18.2761 25.7237 17.8542 25.7237 17.3386C25.7237 16.823 26.1456 16.4011 26.6612 16.4011ZM32.0813 23.4221C32.5969 23.4221 33.0188 23.844 33.0188 24.3596C33.0188 24.8752 32.5969 25.2971 32.0813 25.2971H23.5956C23.0799 25.2971 22.6581 24.8752 22.6581 24.3596C22.6581 23.844 23.0799 23.4221 23.5956 23.4221H32.0813ZM27.8384 28.4152C27.8384 28.9308 27.4165 29.3527 26.9009 29.3527H23.5955C23.0799 29.3527 22.658 28.9308 22.658 28.4152C22.658 27.8996 23.0799 27.4777 23.5955 27.4777H26.9009C27.4165 27.4777 27.8384 27.8996 27.8384 28.4152ZM21.0362 16.4011H22.4719C22.9875 16.4011 23.4094 16.823 23.4094 17.3386C23.4094 17.8542 22.9875 18.2761 22.4719 18.2761H21.0362C20.5206 18.2761 20.0987 17.8542 20.0987 17.3386C20.0987 16.823 20.5206 16.4011 21.0362 16.4011ZM20.1831 24.3596C20.1831 24.8752 19.7612 25.2971 19.2456 25.2971H15.4956C14.9799 25.2971 14.5581 24.8752 14.5581 24.3596C14.5581 23.844 14.9799 23.4221 15.4956 23.4221H19.2456C19.7612 23.4221 20.1831 23.844 20.1831 24.3596ZM20.1831 28.4152C20.1831 28.9308 19.7612 29.3527 19.2456 29.3527H17.9813C17.4657 29.3527 17.0438 28.9308 17.0438 28.4152C17.0438 27.8996 17.4657 27.4777 17.9813 27.4777H19.2456C19.7612 27.4777 20.1831 27.8996 20.1831 28.4152ZM15.4112 16.4011H16.8469C17.3625 16.4011 17.7844 16.823 17.7844 17.3386C17.7844 17.8542 17.3625 18.2761 16.8469 18.2761H15.4112C14.8956 18.2761 14.4737 17.8542 14.4737 17.3386C14.4737 16.823 14.8956 16.4011 15.4112 16.4011ZM14.5581 32.4709C14.5581 31.9553 14.9799 31.5334 15.4956 31.5334H24.3108C24.8264 31.5334 25.2483 31.9553 25.2483 32.4709C25.2483 32.9865 24.8264 33.4084 24.3108 33.4084H15.4956C14.9799 33.4084 14.5581 32.9865 14.5581 32.4709ZM19.2456 37.464H17.9813C17.4657 37.464 17.0438 37.0422 17.0438 36.5265C17.0438 36.0109 17.4657 35.589 17.9813 35.589H19.2456C19.7612 35.589 20.1831 36.0109 20.1831 36.5265C20.1831 37.0422 19.7612 37.464 19.2456 37.464ZM26.9009 37.464H23.5955C23.0799 37.464 22.658 37.0422 22.658 36.5265C22.658 36.0109 23.0799 35.589 23.5955 35.589H26.9009C27.4165 35.589 27.8384 36.0109 27.8384 36.5265C27.8384 37.0422 27.4165 37.464 26.9009 37.464ZM37.6313 37.464H31.5509C31.0353 37.464 30.6134 37.0422 30.6134 36.5265C30.6134 36.0109 31.0353 35.589 31.5509 35.589H37.6312C38.1468 35.589 38.5687 36.0109 38.5687 36.5265C38.5687 37.0422 38.1469 37.464 37.6313 37.464ZM37.6313 33.4084H28.7759C28.2603 33.4084 27.8384 32.9865 27.8384 32.4709C27.8384 31.9553 28.2603 31.5334 28.7759 31.5334H37.6312C38.1468 31.5334 38.5687 31.9553 38.5687 32.4709C38.5687 32.9865 38.1469 33.4084 37.6313 33.4084ZM37.6313 29.3527H31.3661C30.8505 29.3527 30.4286 28.9308 30.4286 28.4152C30.4286 27.8996 30.8505 27.4777 31.3661 27.4777H37.6313C38.1469 27.4777 38.5688 27.8996 38.5688 28.4152C38.5688 28.9308 38.1469 29.3527 37.6313 29.3527ZM46.8755 33.1947C47.2401 33.5593 47.2401 34.1559 46.8755 34.5206C46.511 34.8852 45.9143 34.8852 45.5497 34.5206L42.0717 31.0425C41.7072 30.678 41.7072 30.0813 42.0717 29.7167L45.5498 26.2386C45.9143 25.8741 46.511 25.8741 46.8756 26.2386C47.2402 26.6032 47.2402 27.1998 46.8756 27.5645L44.0605 30.3796L46.8755 33.1947ZM53.6397 24.9659L50.4231 36.3051C50.2824 36.8011 49.7614 37.0918 49.2653 36.9511C48.7693 36.8104 48.4786 36.2894 48.6193 35.7933L51.8359 24.4542C51.9766 23.9581 52.4976 23.6674 52.9937 23.8081C53.4897 23.9488 53.7804 24.4698 53.6397 24.9659ZM60.1873 31.0425L56.7093 34.5206C56.3447 34.8852 55.7481 34.8852 55.3835 34.5206C55.0189 34.156 55.0189 33.5594 55.3835 33.1947L58.1986 30.3796L55.3835 27.5645C55.0189 27.1999 55.0189 26.6033 55.3835 26.2386C55.7481 25.8741 56.3447 25.8741 56.7093 26.2386L60.1873 29.7167C60.5519 30.0813 60.5519 30.6779 60.1873 31.0425Z" fill="#231F20"/>
<path d="M45.7955 57.1548H29.2234C28.4587 57.1548 27.833 57.7805 27.833 58.5452V61.4413H47.1859V58.5452C47.1859 57.7805 46.5603 57.1548 45.7955 57.1548Z" fill="#231F20"/>
<path d="M37.6222 51.322C38.3433 51.2707 38.8864 50.6446 38.8351 49.9234C38.7839 49.2022 38.1577 48.6592 37.4366 48.7104C36.7155 48.7617 36.1724 49.3878 36.2237 50.109C36.2749 50.8302 36.9011 51.3732 37.6222 51.322Z" fill="#231F20"/>
<path d="M11.397 44.8889L11.4141 49.5752C11.4187 50.8127 12.4349 51.8215 13.6724 51.817L21.3907 51.7887L21.3987 53.9483C21.4014 54.713 22.0295 55.3364 22.7942 55.3337L52.2631 55.2257C53.0278 55.223 53.6513 54.595 53.6485 53.8302L53.6406 51.6706L61.3589 51.6423C62.5964 51.6378 63.6052 50.6216 63.6007 49.3841L63.5835 44.6978L11.397 44.8889ZM40.7329 50.2565C40.7329 50.5343 40.5075 50.7596 40.2297 50.7596C40.2031 50.7596 40.1771 50.7569 40.1515 50.7529C40.0866 50.9843 39.9918 51.2032 39.8718 51.4053C39.8894 51.4188 39.9066 51.4331 39.9227 51.4492C40.1192 51.6457 40.1192 51.9642 39.9227 52.1607L39.6141 52.4693C39.4176 52.6658 39.0991 52.6658 38.9026 52.4693C38.8811 52.4479 38.8625 52.4248 38.8457 52.4008C38.6562 52.5056 38.4531 52.5886 38.2394 52.6462C38.246 52.6787 38.2494 52.7122 38.2494 52.7466C38.2494 53.0245 38.0241 53.2497 37.7463 53.2497H37.3098C37.032 53.2497 36.8067 53.0244 36.8067 52.7466C36.8067 52.7122 36.8103 52.6787 36.8168 52.6462C36.5883 52.5846 36.3718 52.4942 36.1714 52.3788C36.1508 52.4126 36.1265 52.4448 36.0972 52.4741C35.9007 52.6706 35.5822 52.6706 35.3857 52.4741L35.0771 52.1654C34.8806 51.9689 34.8806 51.6504 35.0771 51.4539C35.1057 51.4253 35.1371 51.4014 35.1701 51.3811C35.0547 51.1823 34.9638 50.9676 34.9014 50.741C34.8589 50.7527 34.8143 50.7595 34.768 50.7595C34.4902 50.7595 34.2649 50.5343 34.2649 50.2564V49.8199C34.2649 49.542 34.4902 49.3168 34.768 49.3168C34.8102 49.3168 34.8509 49.3226 34.89 49.3323C34.9488 49.1049 35.0363 48.8891 35.1483 48.6887C35.1098 48.6669 35.0733 48.6401 35.0406 48.6072C34.8441 48.4107 34.8441 48.0922 35.0406 47.8957L35.3492 47.5871C35.5457 47.3906 35.8642 47.3906 36.0607 47.5871C36.0882 47.6146 36.1114 47.6446 36.1312 47.6762C36.3429 47.5496 36.573 47.4509 36.8168 47.3852C36.8102 47.3527 36.8067 47.3192 36.8067 47.2847C36.8067 47.0069 37.032 46.7816 37.3098 46.7816H37.7463C38.0242 46.7816 38.2494 47.0069 38.2494 47.2847C38.2494 47.3191 38.2459 47.3527 38.2394 47.3852C38.4687 47.447 38.686 47.5379 38.8871 47.6538C38.9027 47.6322 38.9196 47.6113 38.9391 47.5918C39.1356 47.3953 39.4542 47.3953 39.6507 47.5918L39.9593 47.9004C40.1558 48.0969 40.1558 48.4154 39.9593 48.6119C39.9392 48.632 39.9175 48.6496 39.8951 48.6656C40.0115 48.8693 40.1023 49.0894 40.1633 49.3217C40.1851 49.3187 40.2072 49.3168 40.2298 49.3168C40.5077 49.3168 40.7329 49.542 40.7329 49.8199V50.2565H40.7329Z" fill="#231F20"/>
</svg>
