<svg width="75" height="75" viewBox="0 0 75 75" fill="none" xmlns="http://www.w3.org/2000/svg">
<path d="M25 45L37.5 52.5L50 45M7.5 52.5V22.5V52.5ZM7.5 52.5L37.5 70L7.5 52.5ZM7.5 52.5L25 45L7.5 52.5ZM7.5 22.5L37.5 5L7.5 22.5ZM7.5 22.5L37.5 37.5L7.5 22.5ZM37.5 5L67.5 22.5L37.5 5ZM37.5 5V22.5V5ZM67.5 22.5V52.5V22.5ZM67.5 22.5L37.5 37.5L67.5 22.5ZM67.5 52.5L37.5 70L67.5 52.5ZM67.5 52.5L50 45L67.5 52.5ZM37.5 70V37.5V70ZM37.5 22.5L25 30V45L37.5 22.5ZM37.5 22.5L50 30V45L37.5 22.5Z" stroke="#0084FF"/>
</svg>
