<svg width="20" height="347" viewBox="0 0 20 347" fill="none" xmlns="http://www.w3.org/2000/svg">
<path d="M19 346.3H1.5V342.5L12.6 336.925L1.5 331.425V327.625H19V330.825H6.925L16.5 335.7V338.225L6.925 343.1H19V346.3ZM19 302.205H12.775L1.5 308.08V304.455L9.575 300.58L1.5 296.73V293.155L12.775 299.005H19V302.205ZM19 273.605H1.5V270.405H8.575L1.5 263.93V259.98L8.45 266.43L19 259.805L19 263.73L10.9 268.73L12.725 270.405H19V273.605ZM19.3 233.183C19.3 234.933 18.9167 236.466 18.15 237.783C17.3833 239.083 16.325 240.108 14.975 240.858C13.6083 241.591 12.0333 241.958 10.25 241.958C8.46667 241.958 6.9 241.591 5.55 240.858C4.18333 240.108 3.11667 239.083 2.35 237.783C1.58333 236.466 1.2 234.933 1.2 233.183C1.2 231.45 1.58333 229.925 2.35 228.608C3.11667 227.291 4.18333 226.266 5.55 225.533C6.9 224.8 8.46667 224.433 10.25 224.433C12.0333 224.433 13.6083 224.8 14.975 225.533C16.325 226.266 17.3833 227.291 18.15 228.608C18.9167 229.925 19.3 231.45 19.3 233.183ZM16.425 233.183C16.425 231.516 15.875 230.191 14.775 229.208C13.675 228.208 12.1667 227.708 10.25 227.708C8.33333 227.708 6.825 228.208 5.725 229.208C4.625 230.191 4.075 231.516 4.075 233.183C4.075 234.85 4.625 236.183 5.725 237.183C6.825 238.183 8.33333 238.683 10.25 238.683C12.1667 238.683 13.675 238.183 14.775 237.183C15.875 236.183 16.425 234.85 16.425 233.183ZM19 204.108H1.5V200.908H16.5V193.158H19L19 204.108ZM19 173.963L1.5 167.563L1.5 163.963L19 157.563V160.963L14.95 162.363V169.188L19 170.613V173.963ZM12.45 168.313V163.238L5.175 165.788L12.45 168.313ZM19 114.352H1.5V110.552L12.6 104.977L1.5 99.4768V95.6768H19V98.8768H6.925L16.5 103.752V106.277L6.925 111.152H19V114.352ZM19.3 68.0314C19.3 69.3148 19.05 70.4731 18.55 71.5064C18.0333 72.5398 17.2583 73.3648 16.225 73.9814C15.1917 74.5814 13.8833 74.8814 12.3 74.8814H1.5V71.6814H12.325C13.6917 71.6814 14.7083 71.3564 15.375 70.7064C16.0417 70.0398 16.375 69.1231 16.375 67.9564C16.375 66.8064 16.0417 65.8981 15.375 65.2314C14.7083 64.5648 13.6917 64.2314 12.325 64.2314H1.5V61.0314H12.3C13.8833 61.0314 15.1917 61.3481 16.225 61.9814C17.2583 62.6148 18.0333 63.4648 18.55 64.5314C19.05 65.5814 19.3 66.7481 19.3 68.0314ZM19 40.2648H1.5L1.5 34.2898C1.5 32.2398 1.86667 30.5565 2.6 29.2398C3.31667 27.9065 4.33333 26.9232 5.65 26.2898C6.95 25.6398 8.48333 25.3148 10.25 25.3148C12.0167 25.3148 13.5583 25.6398 14.875 26.2898C16.175 26.9232 17.1917 27.9065 17.925 29.2398C18.6417 30.5565 19 32.2398 19 34.2898V40.2648ZM16.25 37.0648V34.4398C16.25 32.9732 16.0167 31.8148 15.55 30.9648C15.0667 30.1148 14.3833 29.5065 13.5 29.1398C12.6 28.7732 11.5167 28.5898 10.25 28.5898C9 28.5898 7.925 28.7732 7.025 29.1398C6.125 29.5065 5.43333 30.1148 4.95 30.9648C4.46667 31.8148 4.225 32.9732 4.225 34.4398V37.0648H16.25ZM5.6 0.641406L2.9 6.29141H0.299999L3.35 0.641406H5.6Z" fill="white" fill-opacity="0.2"/>
</svg>
